# This file uses centimeters as units for non-parametric coordinates.

mtllib wall-corner.mtl
v 4.000000 0.000000 0.099999
v 2.794833 0.000000 0.290879
v 1.707637 0.000000 0.844833
v 0.844833 0.000000 1.707637
v 0.290879 0.000000 2.794834
v 0.099999 0.000000 4.000000
v 4.000000 1.333333 0.099999
v 2.794833 1.333333 0.290879
v 1.707637 1.333333 0.844833
v 0.844833 1.333333 1.707637
v 0.290879 1.333333 2.794834
v 0.099999 1.333333 4.000000
v 4.000000 2.666667 0.099999
v 2.794833 2.666667 0.290879
v 1.707637 2.666667 0.844833
v 0.844833 2.666667 1.707637
v 0.290879 2.666667 2.794834
v 0.099999 2.666667 4.000000
v 4.000000 4.000000 0.099999
v 2.794833 4.000000 0.290879
v 1.707637 4.000000 0.844833
v 0.844833 4.000000 1.707637
v 0.290879 4.000000 2.794834
v 0.099999 4.000000 4.000000
vt 0.000000 1.000000
vt 0.200000 1.000000
vt 0.400000 1.000000
vt 0.600000 1.000000
vt 0.800000 1.000000
vt 1.000000 1.000000
vt 0.000000 0.666667
vt 0.200000 0.666667
vt 0.400000 0.666667
vt 0.600000 0.666667
vt 0.800000 0.666667
vt 1.000000 0.666667
vt 0.000000 0.333333
vt 0.200000 0.333333
vt 0.400000 0.333333
vt 0.600000 0.333333
vt 0.800000 0.333333
vt 1.000000 0.333333
vt 0.000000 0.000000
vt 1.000000 0.000000
vt 0.800000 0.000000
vt 0.600000 0.000000
vt 0.400000 0.000000
vt 0.200000 0.000000
vn 0.309017 0.000000 0.951057
vn 0.156434 0.000000 0.987688
vn 0.309017 0.000000 0.951057
vn 0.156434 0.000000 0.987688
vn 0.587785 0.000000 0.809017
vn 0.587785 0.000000 0.809017
vn 0.809017 0.000000 0.587785
vn 0.809017 0.000000 0.587785
vn 0.951057 0.000000 0.309017
vn 0.951057 0.000000 0.309017
vn 0.987688 0.000000 0.156435
vn 0.987688 0.000000 0.156435
vn 0.309017 0.000000 0.951057
vn 0.156434 0.000000 0.987688
vn 0.587785 0.000000 0.809017
vn 0.809017 0.000000 0.587785
vn 0.951057 0.000000 0.309017
vn 0.987688 0.000000 0.156435
vn 0.309017 0.000000 0.951057
vn 0.156434 0.000000 0.987688
vn 0.587785 0.000000 0.809017
vn 0.809017 0.000000 0.587785
vn 0.951057 0.000000 0.309017
vn 0.987688 0.000000 0.156435
usemtl phong2SG
f 2/2/1 1/1/2 8/8/3
f 8/8/3 1/1/2 7/7/4
f 3/3/5 2/2/1 9/9/6
f 9/9/6 2/2/1 8/8/3
f 4/4/7 3/3/5 10/10/8
f 10/10/8 3/3/5 9/9/6
f 5/5/9 4/4/7 11/11/10
f 11/11/10 4/4/7 10/10/8
f 6/6/11 5/5/9 12/12/12
f 12/12/12 5/5/9 11/11/10
f 8/8/3 7/7/4 14/14/13
f 14/14/13 7/7/4 13/13/14
f 9/9/6 8/8/3 15/15/15
f 15/15/15 8/8/3 14/14/13
f 10/10/8 9/9/6 16/16/16
f 16/16/16 9/9/6 15/15/15
f 11/11/10 10/10/8 17/17/17
f 17/17/17 10/10/8 16/16/16
f 12/12/12 11/11/10 18/18/18
f 18/18/18 11/11/10 17/17/17
f 14/14/13 13/13/14 20/24/19
f 20/24/19 13/13/14 19/19/20
f 15/15/15 14/14/13 21/23/21
f 21/23/21 14/14/13 20/24/19
f 16/16/16 15/15/15 22/22/22
f 22/22/22 15/15/15 21/23/21
f 17/17/17 16/16/16 23/21/23
f 23/21/23 16/16/16 22/22/22
f 18/18/18 17/17/17 24/20/24
f 24/20/24 17/17/17 23/21/23
