# This file uses centimeters as units for non-parametric coordinates.

mtllib wall-corner-inverse-double.mtl
v 2.000000 0.000000 -0.100001
v 1.351064 0.000000 0.002780
v 0.765651 0.000000 0.301064
v 0.301064 0.000000 0.765651
v 0.002781 0.000000 1.351064
v -0.100000 0.000000 2.000000
v 0.002781 0.000000 2.648936
v 0.301064 0.000000 3.234349
v 0.765651 0.000000 3.698936
v 1.351064 0.000000 3.997219
v 2.000000 0.000000 4.100000
v 2.000000 1.333333 -0.100001
v 1.351064 1.333333 0.002780
v 0.765651 1.333333 0.301064
v 0.301064 1.333333 0.765651
v 0.002781 1.333333 1.351064
v -0.100000 1.333333 2.000000
v 0.002781 1.333333 2.648936
v 0.301064 1.333333 3.234349
v 0.765651 1.333333 3.698936
v 1.351064 1.333333 3.997219
v 2.000000 1.333333 4.100000
v 2.000000 2.666667 -0.100001
v 1.351064 2.666667 0.002780
v 0.765651 2.666667 0.301064
v 0.301064 2.666667 0.765651
v 0.002781 2.666667 1.351064
v -0.100000 2.666667 2.000000
v 0.002781 2.666667 2.648936
v 0.301064 2.666667 3.234349
v 0.765651 2.666667 3.698936
v 1.351064 2.666667 3.997219
v 2.000000 2.666667 4.100000
v 2.000000 4.000000 -0.100001
v 1.351064 4.000000 0.002780
v 0.765651 4.000000 0.301064
v 0.301064 4.000000 0.765651
v 0.002781 4.000000 1.351064
v -0.100000 4.000000 2.000000
v 0.002781 4.000000 2.648936
v 0.301064 4.000000 3.234349
v 0.765651 4.000000 3.698936
v 1.351064 4.000000 3.997219
v 2.000000 4.000000 4.100000
vt 0.000000 0.000000
vt 0.100000 0.000000
vt 0.200000 0.000000
vt 0.300000 0.000000
vt 0.400000 0.000000
vt 0.500000 0.000000
vt 0.600000 0.000000
vt 0.700000 0.000000
vt 0.800000 0.000000
vt 0.900000 0.000000
vt 1.000000 0.000000
vt 0.000000 0.333333
vt 0.100000 0.333333
vt 0.200000 0.333333
vt 0.300000 0.333333
vt 0.400000 0.333333
vt 0.500000 0.333333
vt 0.600000 0.333333
vt 0.700000 0.333333
vt 0.800000 0.333333
vt 0.900000 0.333333
vt 1.000000 0.333333
vt 0.000000 0.666667
vt 0.100000 0.666667
vt 0.200000 0.666667
vt 0.300000 0.666667
vt 0.400000 0.666667
vt 0.500000 0.666667
vt 0.600000 0.666667
vt 0.700000 0.666667
vt 0.800000 0.666667
vt 0.900000 0.666667
vt 1.000000 0.666667
vt 0.000000 1.000000
vt 0.100000 1.000000
vt 0.200000 1.000000
vt 0.300000 1.000000
vt 0.400000 1.000000
vt 0.500000 1.000000
vt 0.600000 1.000000
vt 0.700000 1.000000
vt 0.800000 1.000000
vt 0.900000 1.000000
vt 1.000000 1.000000
vn -0.156434 0.000000 -0.987688
vn -0.309017 0.000000 -0.951057
vn -0.156434 0.000000 -0.987688
vn -0.309017 0.000000 -0.951056
vn -0.587785 0.000000 -0.809017
vn -0.587785 0.000000 -0.809017
vn -0.809017 0.000000 -0.587785
vn -0.809017 0.000000 -0.587785
vn -0.951057 0.000000 -0.309017
vn -0.951057 0.000000 -0.309017
vn -1.000000 0.000000 0.000000
vn -1.000000 0.000000 0.000000
vn -0.951057 0.000000 0.309017
vn -0.951057 0.000000 0.309017
vn -0.809017 0.000000 0.587785
vn -0.809017 0.000000 0.587785
vn -0.587785 0.000000 0.809017
vn -0.587785 0.000000 0.809017
vn -0.309017 0.000000 0.951057
vn -0.309017 0.000000 0.951057
vn -0.156434 0.000000 0.987688
vn -0.156434 0.000000 0.987688
vn -0.156434 0.000000 -0.987688
vn -0.309017 0.000000 -0.951056
vn -0.587785 0.000000 -0.809017
vn -0.809017 0.000000 -0.587785
vn -0.951057 0.000000 -0.309017
vn -1.000000 0.000000 -0.000000
vn -0.951057 0.000000 0.309017
vn -0.809017 0.000000 0.587785
vn -0.587785 0.000000 0.809017
vn -0.309017 0.000000 0.951057
vn -0.156434 0.000000 0.987688
vn -0.156434 0.000000 -0.987688
vn -0.309017 0.000000 -0.951056
vn -0.587786 0.000000 -0.809017
vn -0.809017 0.000000 -0.587785
vn -0.951057 0.000000 -0.309017
vn -1.000000 0.000000 0.000000
vn -0.951057 0.000000 0.309017
vn -0.809017 0.000000 0.587785
vn -0.587785 0.000000 0.809017
vn -0.309017 0.000000 0.951057
vn -0.156434 0.000000 0.987688
usemtl phong2SG
f 1/1/1 2/2/2 12/12/3
f 12/12/3 2/2/2 13/13/4
f 2/2/2 3/3/5 13/13/4
f 13/13/4 3/3/5 14/14/6
f 3/3/5 4/4/7 14/14/6
f 14/14/6 4/4/7 15/15/8
f 4/4/7 5/5/9 15/15/8
f 15/15/8 5/5/9 16/16/10
f 5/5/9 6/6/11 16/16/10
f 16/16/10 6/6/11 17/17/12
f 6/6/11 7/7/13 17/17/12
f 17/17/12 7/7/13 18/18/14
f 7/7/13 8/8/15 18/18/14
f 18/18/14 8/8/15 19/19/16
f 8/8/15 9/9/17 19/19/16
f 19/19/16 9/9/17 20/20/18
f 9/9/17 10/10/19 20/20/18
f 20/20/18 10/10/19 21/21/20
f 10/10/19 11/11/21 21/21/20
f 21/21/20 11/11/21 22/22/22
f 12/12/3 13/13/4 23/23/23
f 23/23/23 13/13/4 24/24/24
f 13/13/4 14/14/6 24/24/24
f 24/24/24 14/14/6 25/25/25
f 14/14/6 15/15/8 25/25/25
f 25/25/25 15/15/8 26/26/26
f 15/15/8 16/16/10 26/26/26
f 26/26/26 16/16/10 27/27/27
f 16/16/10 17/17/12 27/27/27
f 27/27/27 17/17/12 28/28/28
f 17/17/12 18/18/14 28/28/28
f 28/28/28 18/18/14 29/29/29
f 18/18/14 19/19/16 29/29/29
f 29/29/29 19/19/16 30/30/30
f 19/19/16 20/20/18 30/30/30
f 30/30/30 20/20/18 31/31/31
f 20/20/18 21/21/20 31/31/31
f 31/31/31 21/21/20 32/32/32
f 21/21/20 22/22/22 32/32/32
f 32/32/32 22/22/22 33/33/33
f 23/23/23 24/24/24 34/34/34
f 34/34/34 24/24/24 35/35/35
f 24/24/24 25/25/25 35/35/35
f 35/35/35 25/25/25 36/36/36
f 25/25/25 26/26/26 36/36/36
f 36/36/36 26/26/26 37/37/37
f 26/26/26 27/27/27 37/37/37
f 37/37/37 27/27/27 38/38/38
f 27/27/27 28/28/28 38/38/38
f 38/38/38 28/28/28 39/39/39
f 28/28/28 29/29/29 39/39/39
f 39/39/39 29/29/29 40/40/40
f 29/29/29 30/30/30 40/40/40
f 40/40/40 30/30/30 41/41/41
f 30/30/30 31/31/31 41/41/41
f 41/41/41 31/31/31 42/42/42
f 31/31/31 32/32/32 42/42/42
f 42/42/42 32/32/32 43/43/43
f 32/32/32 33/33/33 43/43/43
f 43/43/43 33/33/33 44/44/44
